<svg xmlns="http://www.w3.org/2000/svg" width="400" height="225">
  <rect width="400" height="225" fill="white"/>
  <!-- baseline -->
  <line x1="0" y1="195.0" x2="400" y2="195.0" stroke="#ccc" stroke-width="0.5"/>
  <!-- dotlessi yMax line -->
  <line x1="0" y1="42.0" x2="400" y2="42.0" stroke="blue" stroke-width="0.5" stroke-dasharray="2,2"/>
  <!-- caron yMin natural line (570 units) -->
  <line x1="0" y1="24.0" x2="400" y2="24.0" stroke="green" stroke-width="0.5" stroke-dasharray="2,2"/>
  
  <!-- Left: icaron composite -->
  <text x="80" y="220" font-family="monospace" font-size="8" fill="gray">icaron</text>
  <path d="M98.9 191.7Q99.8 192.6 99.8 194.1Q99.8 198.0 95.9 198.0Q92.0 198.0 92.0 194.1Q92.0 192.6 92.9 191.7V48.599999999999994Q92.0 47.099999999999994 92.0 45.900000000000006Q92.0 42.0 95.9 42.0Q99.8 42.0 99.8 45.900000000000006Q99.8 47.099999999999994 98.9 48.599999999999994Z" fill="black"/>
  <path d="M99.80000000000001 23.400000000000006Q99.2 27.0 95.9 27.0Q92.0 27.0 92.0 23.400000000000006L61.400000000000006 -7.199999999999989Q57.800000000000004 -7.199999999999989 57.800000000000004 -11.099999999999994Q57.800000000000004 -15.0 61.7 -15.0Q65.60000000000001 -15.0 65.60000000000001 -11.099999999999994L95.9 19.200000000000017L126.19999999999999 -11.099999999999994Q126.19999999999999 -15.0 130.1 -15.0Q134.0 -15.0 134.0 -11.099999999999994Q134.0 -7.199999999999989 130.4 -7.199999999999989Z" fill="black"/>
  
  <!-- Right: acaron for comparison -->
  <text x="280" y="220" font-family="monospace" font-size="8" fill="gray">acaron</text>
  <path d="M351.1 191.7Q352.0 192.9 352.0 194.1Q352.0 198.0 348.1 198.0Q344.2 198.0 344.2 194.1Q344.2 192.6 345.1 191.7V185.4Q341.2 191.1 335.2 194.55Q329.2 198.0 320.2 198.0Q308.5 198.0 301.75 192.9Q295.0 187.8 292.15 179.85000000000002Q289.3 171.9 289.3 163.5V139.2Q289.3 130.5 292.0 122.7Q294.7 114.9 302.95 109.80000000000001Q311.2 104.7 327.4 104.7H345.1V76.5Q345.1 69.60000000000001 342.85 63.15000000000001Q340.6 56.70000000000002 335.20000000000005 52.35000000000001Q329.8 48.0 320.2 48.0Q306.7 48.0 301.0 56.10000000000001Q295.3 64.20000000000002 295.0 73.80000000000001Q295.9 75.0 295.9 76.2Q295.9 79.80000000000001 292.0 79.80000000000001Q288.1 79.80000000000001 288.1 76.2Q288.1 74.4 289.0 73.5Q289.6 65.4 292.75 58.2Q295.9 51.0 302.5 46.5Q309.1 42.0 320.2 42.0Q331.9 42.0 338.65 47.10000000000001Q345.4 52.20000000000002 348.25 60.000000000000014Q351.1 67.80000000000001 351.1 76.5ZM295.3 163.5Q295.3 170.4 297.4 177.0Q299.5 183.6 305.05 187.8Q310.6 192.0 320.2 192.0Q329.8 192.0 335.05 188.1Q340.3 184.2 342.55 178.2Q344.8 172.2 345.1 165.6V110.7H327.4Q313.3 110.7 306.4 114.9Q299.5 119.10000000000001 297.4 125.70000000000002Q295.3 132.3 295.3 139.2Z" fill="black"/>
  <path d="M323.8 23.400000000000006Q323.2 27.0 319.90000000000003 27.0Q316.0 27.0 316.0 23.400000000000006L285.40000000000003 -7.199999999999989Q281.8 -7.199999999999989 281.8 -11.099999999999994Q281.8 -15.0 285.7 -15.0Q289.6 -15.0 289.6 -11.099999999999994L319.90000000000003 19.200000000000017L350.2 -11.099999999999994Q350.2 -15.0 354.1 -15.0Q358.0 -15.0 358.0 -11.099999999999994Q358.0 -7.199999999999989 354.4 -7.199999999999989Z" fill="black"/>
</svg>