<svg xmlns="http://www.w3.org/2000/svg" width="500" height="332" viewBox="0 0 500 332">
  <rect width="500" height="332" fill="white"/>

  <!-- Labels -->
  <text x="100" y="327" text-anchor="middle" font-family="monospace" font-size="11" fill="#666">icaron (Wire One)</text>
  <text x="340" y="327" text-anchor="middle" font-family="monospace" font-size="11" fill="#666">acaron (Wire One)</text>

  <!-- baseline -->
  <line x1="0" y1="300.0" x2="500" y2="300.0" stroke="#aaa" stroke-width="0.5"/>
  
  <!-- icaron glyphs -->
  <path d="M104.0 295.6Q105.2 296.8 105.2 298.8Q105.2 304.0 100.0 304.0Q94.8 304.0 94.8 298.8Q94.8 296.8 96.0 295.6V104.79999999999998Q94.8 102.79999999999998 94.8 101.19999999999999Q94.8 96.0 100.0 96.0Q105.2 96.0 105.2 101.19999999999999Q105.2 102.79999999999998 104.0 104.79999999999998Z" fill="#111"/>
  <path d="M105.19999999999999 71.19999999999999Q104.4 76.0 100.0 76.0Q94.8 76.0 94.8 71.19999999999999L54.0 30.399999999999977Q49.199999999999996 30.399999999999977 49.199999999999996 25.19999999999999Q49.199999999999996 20.0 54.4 20.0Q59.599999999999994 20.0 59.599999999999994 25.19999999999999L100.0 65.6L140.4 25.19999999999999Q140.4 20.0 145.6 20.0Q150.8 20.0 150.8 25.19999999999999Q150.8 30.399999999999977 146.0 30.399999999999977Z" fill="#111"/>
  
  <!-- acaron glyphs -->
  <path d="M381.2 295.6Q382.4 297.2 382.4 298.8Q382.4 304.0 377.2 304.0Q372.0 304.0 372.0 298.8Q372.0 296.8 373.2 295.6V287.2Q368.0 294.8 360.0 299.4Q352.0 304.0 340.0 304.0Q324.4 304.0 315.4 297.2Q306.4 290.4 302.59999999999997 279.79999999999995Q298.79999999999995 269.2 298.79999999999995 258.0V225.6Q298.79999999999995 214.0 302.4 203.6Q306.0 193.2 317.0 186.39999999999998Q328.0 179.6 349.59999999999997 179.6H373.2V142.0Q373.2 132.79999999999998 370.2 124.19999999999999Q367.2 115.6 360.0 109.8Q352.79999999999995 104.0 340.0 104.0Q322.0 104.0 314.4 114.8Q306.79999999999995 125.6 306.4 138.39999999999998Q307.59999999999997 140.0 307.59999999999997 141.6Q307.59999999999997 146.39999999999998 302.4 146.39999999999998Q297.2 146.39999999999998 297.2 141.6Q297.2 139.2 298.4 138.0Q299.2 127.19999999999999 303.4 117.6Q307.59999999999997 108.0 316.4 102.0Q325.2 96.0 340.0 96.0Q355.59999999999997 96.0 364.59999999999997 102.8Q373.59999999999997 109.6 377.4 119.99999999999999Q381.2 130.39999999999998 381.2 142.0ZM306.79999999999995 258.0Q306.79999999999995 267.2 309.59999999999997 276.0Q312.4 284.8 319.79999999999995 290.4Q327.2 296.0 340.0 296.0Q352.79999999999995 296.0 359.79999999999995 290.8Q366.79999999999995 285.6 369.79999999999995 277.6Q372.79999999999995 269.6 373.2 260.8V187.6H349.59999999999997Q330.79999999999995 187.6 321.59999999999997 193.2Q312.4 198.8 309.59999999999997 207.6Q306.79999999999995 216.39999999999998 306.79999999999995 225.6Z" fill="#111"/>
  <path d="M344.79999999999995 71.19999999999999Q343.99999999999994 76.0 339.59999999999997 76.0Q334.4 76.0 334.4 71.19999999999999L293.59999999999997 30.399999999999977Q288.79999999999995 30.399999999999977 288.79999999999995 25.19999999999999Q288.79999999999995 20.0 293.99999999999994 20.0Q299.19999999999993 20.0 299.19999999999993 25.19999999999999L339.59999999999997 65.6L379.99999999999994 25.19999999999999Q379.99999999999994 20.0 385.19999999999993 20.0Q390.4 20.0 390.4 25.19999999999999Q390.4 30.399999999999977 385.59999999999997 30.399999999999977Z" fill="#111"/>
</svg>