<svg xmlns="http://www.w3.org/2000/svg" width="223" height="120">
  <rect width="223" height="120" fill="white"/>
  <line x1="0" y1="105.0" x2="223" y2="105.0" stroke="#ccc" stroke-width="0.5"/>
  <path d="M29.45 103.35Q29.9 103.8 29.9 104.55Q29.9 106.5 27.95 106.5Q26.0 106.5 26.0 104.55Q26.0 103.8 26.45 103.35V31.799999999999997Q26.0 31.049999999999997 26.0 30.450000000000003Q26.0 28.5 27.95 28.5Q29.9 28.5 29.9 30.450000000000003Q29.9 31.049999999999997 29.45 31.799999999999997Z" fill="black"/>
  <path d="M42.2 4.799999999999997Q42.95 4.3500000000000085 43.55 4.3500000000000085Q45.5 4.3500000000000085 45.5 6.299999999999997Q45.5 8.25 43.55 8.25Q42.95 8.25 42.2 7.799999999999997H17.75Q17.299999999999997 8.25 16.549999999999997 8.25Q14.6 8.25 14.6 6.299999999999997Q14.6 4.3500000000000085 16.549999999999997 4.3500000000000085Q17.299999999999997 4.3500000000000085 17.75 4.799999999999997Z" fill="black"/>
  <path d="M75.2 103.35Q75.65 103.8 75.65 104.55Q75.65 106.5 73.7 106.5Q71.75 106.5 71.75 104.55Q71.75 103.8 72.2 103.35V31.799999999999997Q71.75 31.049999999999997 71.75 30.450000000000003Q71.75 28.5 73.7 28.5Q75.65 28.5 75.65 30.450000000000003Q75.65 31.049999999999997 75.2 31.799999999999997Z" fill="black"/>
  <path d="M75.80000000000001 17.549999999999997Q75.80000000000001 19.5 73.85000000000001 19.5Q71.9 19.5 71.9 17.549999999999997Q71.9 15.75 73.7 15.600000000000009L89.0 0.29999999999999716Q89.0 -1.5 90.95 -1.5Q92.9 -1.5 92.9 0.45000000000000284Q92.9 2.4000000000000057 90.95 2.4000000000000057Z" fill="black"/>
  <path d="M120.95 103.35Q121.4 103.8 121.4 104.55Q121.4 106.5 119.45 106.5Q117.5 106.5 117.5 104.55Q117.5 103.8 117.95 103.35V31.799999999999997Q117.5 31.049999999999997 117.5 30.450000000000003Q117.5 28.5 119.45 28.5Q121.4 28.5 121.4 30.450000000000003Q121.4 31.049999999999997 120.95 31.799999999999997Z" fill="black"/>
  <path d="M121.4 19.200000000000003Q121.10000000000001 21.0 119.45 21.0Q117.5 21.0 117.5 19.200000000000003L102.2 3.9000000000000057Q100.4 3.9000000000000057 100.4 1.9500000000000028Q100.4 0.0 102.35000000000001 0.0Q104.30000000000001 0.0 104.30000000000001 1.9500000000000028L119.45 17.10000000000001L134.6 1.9500000000000028Q134.6 0.0 136.55 0.0Q138.5 0.0 138.5 1.9500000000000028Q138.5 3.9000000000000057 136.7 3.9000000000000057Z" fill="black"/>
  <path d="M166.7 103.35Q167.15 103.8 167.15 104.55Q167.15 106.5 165.2 106.5Q163.25 106.5 163.25 104.55Q163.25 103.8 163.7 103.35V31.799999999999997Q163.25 31.049999999999997 163.25 30.450000000000003Q163.25 28.5 165.2 28.5Q167.15 28.5 167.15 30.450000000000003Q167.15 31.049999999999997 166.7 31.799999999999997Z" fill="black"/>
  <path d="M165.2 15.600000000000009Q167.0 15.900000000000006 167.0 17.549999999999997Q167.0 19.5 165.05 19.5Q163.1 19.5 163.1 17.549999999999997L147.95 2.4000000000000057Q146.0 2.4000000000000057 146.0 0.45000000000000284Q146.0 -1.5 147.95 -1.5Q149.3 -1.5 149.9 0.29999999999999716Z" fill="black"/>

  <text x="27.9" y="117" text-anchor="middle" font-family="monospace" font-size="8" fill="#666">ī</text>
  <text x="73.6" y="117" text-anchor="middle" font-family="monospace" font-size="8" fill="#666">í</text>
  <text x="119.4" y="117" text-anchor="middle" font-family="monospace" font-size="8" fill="#666">ǐ</text>
  <text x="165.1" y="117" text-anchor="middle" font-family="monospace" font-size="8" fill="#666">ì</text>

</svg>