<svg width="800" height="200" xmlns="http://www.w3.org/2000/svg" style="background:#0b1120; color:white;">
<g id="char-0">
<path fill="currentColor" d="M18.13 41.25L18.13 37.09L37.59 37.09Q37.81 36.88 37.81 31.84L37.81 31.84L42.19 31.84L42.19 37.09L61.88 37.09L61.88 41.25L41.53 41.25Q41.31 41.91 41.09 42.34L41.09 42.34Q52.47 45.19 61.88 48.91L61.88 48.91L58.81 52.63Q49.19 48.47 38.69 45.63L38.69 45.63Q33.44 50.22 19.88 52.41L19.88 52.41L17.47 48.47Q33.44 45.84 36.28 41.25L36.28 41.25L18.13 41.25ZM14.84 57.66L14.84 53.50L65.16 53.50L65.16 57.66L56.84 57.66L56.84 76.69Q56.84 79.75 55.75 80.95Q54.66 82.16 50.94 82.16L50.94 82.16Q47.44 82.16 44.59 81.72L44.59 81.72L43.72 77.34Q47.22 78 50.94 78L50.94 78Q52.47 78 52.47 76.03L52.47 76.03L52.47 57.66L14.84 57.66ZM22.28 73.84L22.28 61.38L44.16 61.38L44.16 73.84L22.28 73.84ZM26.44 65.09L26.44 69.91L40 69.91L40 65.09L26.44 65.09Z"/>
<path fill="currentColor" id="pinyin-0" transform="translate(33.67, 0) scale(1.000, 1)" d="M1.82 0.67L1.82 0.67L1.88 0.67L2.05-0.38L3.11-0.38L3.11 11.22L1.82 11.22L1.82 7.82L1.88 6.59L1.82 6.59Q1.00 7.76-0.53 7.76L-0.53 7.76Q-1.88 7.76-2.72 6.74Q-3.57 5.71-3.57 3.66L-3.57 3.66Q-3.57 1.55-2.72 0.50Q-1.88-0.56-0.53-0.56L-0.53-0.56Q0.94-0.56 1.82 0.67ZM1.82 3.95L1.82 3.95L1.82 3.66Q1.82 1.90 1.29 1.23Q0.76 0.55-0.29 0.55L-0.29 0.55Q-1.23 0.55-1.70 1.32Q-2.17 2.08-2.17 3.66L-2.17 3.66Q-2.17 5.18-1.70 5.95Q-1.23 6.71-0.23 6.71L-0.23 6.71Q0.76 6.71 1.29 6.06Q1.82 5.42 1.82 3.95Z"/><path fill="currentColor" id="pinyin-1" transform="translate(42.46, 0) scale(1.000, 1)" d="M0.70-0.38L0.70 7.64L-0.64 7.64L-0.64-0.38L0.70-0.38ZM-0.53-1.44L-0.53-1.67Q0.18-2.55 0.76-3.84L0.76-3.84L2.34-3.84L2.34-3.72Q1.58-2.49 0.35-1.44L0.35-1.44L-0.53-1.44Z"/>
</g>
<g id="char-1">
<path fill="currentColor" d="M94.84 67.94L94.84 63.78L109.50 63.78Q109.72 61.38 109.72 58.75L109.72 58.75L114.09 58.75Q114.09 61.38 113.88 63.78L113.88 63.78L127 63.78L127 58.53L131.38 58.53L131.38 63.78L145.16 63.78L145.16 67.94L131.38 67.94L131.38 81.94L127 81.94L127 67.94L113.44 67.94Q111.91 80.84 99.44 82.59L99.44 82.59L97.69 78.44Q107.75 76.69 109.06 67.94L109.06 67.94L94.84 67.94ZM100.53 33.38L137.94 33.38L137.94 47.59L104.91 47.59L104.91 51.31Q104.91 52.41 106.98 52.84Q109.06 53.28 121.31 53.28L121.31 53.28Q136.19 53.28 137.72 52.63L137.72 52.63Q138.59 52.41 139.25 48.47L139.25 48.47L143.41 50.88Q142.31 55.47 140.56 56.45Q138.81 57.44 121.31 57.44L121.31 57.44Q106.22 57.44 103.38 56.34Q100.53 55.25 100.53 52.63L100.53 52.63L100.53 33.38ZM133.78 37.53L104.91 37.53L104.91 43.22L133.78 43.22L133.78 37.53Z"/>
<path fill="currentColor" id="pinyin-0" transform="translate(114.40, 0) scale(1.000, 1)" d="M-0.56 7.70L-3.60-0.38L-2.20-0.38L-0.62 4.07Q-0.09 5.71 0.03 6.53L0.03 6.53L0.09 6.53Q0.26 5.65 0.79 4.07L0.79 4.07L2.20-0.38L3.60-0.38L0.44 8.70Q-0.09 10.16-0.73 10.69Q-1.38 11.22-2.31 11.22L-2.31 11.22Q-2.90 11.22-3.49 11.10L-3.49 11.10L-3.49 10.05Q-3.08 10.16-2.61 10.16L-2.61 10.16Q-1.44 10.16-0.97 8.88L-0.97 8.88L-0.56 7.70Z"/><path fill="currentColor" id="pinyin-1" transform="translate(121.73, 0) scale(1.000, 1)" d="M0.70-0.38L0.70 7.64L-0.64 7.64L-0.64-0.38L0.70-0.38ZM0.76-1.67L0.76-1.44L-0.12-1.44Q-1.29-2.43-2.11-3.72L-2.11-3.72L-2.11-3.84L-0.47-3.84Q0.06-2.67 0.76-1.67L0.76-1.67Z"/>
</g>
<g id="char-2">
<path fill="currentColor" d="M180.53 61.81L180.53 33.81L219.25 33.81L219.25 61.81L180.53 61.81ZM184.69 37.53L184.69 58.09L215.09 58.09L215.09 37.53L184.69 37.53ZM187.53 46.06L187.53 42.34L198.03 42.34Q198.25 40.81 198.25 39.28L198.25 39.28L202.41 39.28Q202.41 40.81 202.19 42.34L202.19 42.34L212.47 42.34L212.47 46.06L201.53 46.06Q201.53 46.94 201.31 47.59L201.31 47.59Q207.66 50.22 212.25 53.50L212.25 53.50L209.41 57Q204.81 53.28 199.56 50.88L199.56 50.88Q196.72 54.59 188.84 57L188.84 57L186.22 53.50Q195.41 50.88 197.16 46.06L197.16 46.06L187.53 46.06ZM195.63 66.84L198.47 64Q203.28 66.63 207.22 70.34L207.22 70.34L204.16 74.06Q200 69.91 195.63 66.84L195.63 66.84ZM180.97 65.53L180.97 65.53L184.69 67.72Q181.41 75.59 177.91 79.97L177.91 79.97L174.19 76.69Q178.34 71.44 180.97 65.53ZM187.75 76.47L187.75 65.75L192.13 65.75L192.13 74.72Q192.13 76.25 192.89 76.69Q193.66 77.13 197.16 77.13L197.16 77.13Q201.31 77.13 205.47 76.91L205.47 76.91Q209.19 76.69 209.73 75.70Q210.28 74.72 210.72 71.44L210.72 71.44L215.09 73.19Q213.78 79.31 211.59 80.19L211.59 80.19Q208.53 81.06 197.16 81.06L197.16 81.06L195.19 81.06Q190.59 81.06 189.17 79.97Q187.75 78.88 187.75 76.47L187.75 76.47ZM214 67.72L217.94 65.75Q222.53 71 225.59 77.34L225.59 77.34L221.22 79.53Q218.59 73.41 214 67.72L214 67.72Z"/>
<path fill="currentColor" id="pinyin-0" transform="translate(191.56, 0) scale(1.000, 1)" d="M3.25 3.07L3.25 3.89L-1.79 3.89Q-1.79 5.24-1.23 5.95Q-0.67 6.65 0.44 6.65L0.44 6.65Q1.73 6.65 2.90 6.06L2.90 6.06L2.90 7.23Q1.79 7.76 0.44 7.76L0.44 7.76Q-1.20 7.76-2.20 6.71Q-3.19 5.65-3.19 3.66L-3.19 3.66Q-3.19 1.67-2.26 0.55Q-1.32-0.56 0.15-0.56L0.15-0.56Q1.55-0.56 2.40 0.41Q3.25 1.38 3.25 3.07L3.25 3.07ZM-1.79 2.78L-1.79 2.78L1.85 2.78Q1.85 1.67 1.41 1.11Q0.97 0.55 0.09 0.55L0.09 0.55Q-1.61 0.55-1.79 2.78ZM-1.96-1.44L-1.96-2.55L2.26-2.55L2.26-1.44L-1.96-1.44Z"/><path fill="currentColor" id="pinyin-1" transform="translate(199.59, 0) scale(1.000, 1)" d="M3.19 7.64L1.90 7.64L1.90 2.49Q1.90 1.49 1.49 1.02Q1.08 0.55 0.26 0.55L0.26 0.55Q-0.73 0.55-1.26 1.23Q-1.79 1.90-1.79 3.48L-1.79 3.48L-1.79 7.64L-3.13 7.64L-3.13-0.38L-2.08-0.38L-1.85 0.67L-1.79 0.67Q-1.08-0.56 0.50-0.56L0.50-0.56Q1.85-0.56 2.52 0.17Q3.19 0.91 3.19 2.37L3.19 2.37L3.19 7.64Z"/>
</g>
<g id="char-3">
<path fill="currentColor" d="M288.09 37.75L300.34 37.75L300.34 65.97L305.81 65.97L305.81 70.13L253.97 70.13L253.97 65.97L259.44 65.97L259.44 37.75L271.69 37.75L271.69 31.41L276.06 31.41L276.06 37.75L283.72 37.75L283.72 31.41L288.09 31.41L288.09 37.75ZM263.81 41.91L263.81 52.19L271.69 52.19L271.69 41.91L263.81 41.91ZM283.72 41.91L276.06 41.91L276.06 52.19L283.72 52.19L283.72 41.91ZM295.97 41.91L288.09 41.91L288.09 52.19L295.97 52.19L295.97 41.91ZM263.81 55.91L263.81 65.97L271.69 65.97L271.69 55.91L263.81 55.91ZM276.06 55.91L276.06 65.97L283.72 65.97L283.72 55.91L276.06 55.91ZM288.09 55.91L288.09 65.97L295.97 65.97L295.97 55.91L288.09 55.91ZM272.13 71.22L272.13 71.22L275.63 73.84Q269.06 78.88 259.88 82.16L259.88 82.16L256.59 77.78Q265.13 75.38 272.13 71.22ZM284.38 75.81L286.56 71.88Q295.09 74.28 302.97 77.78L302.97 77.78L301 82.38Q292.69 78.22 284.38 75.81L284.38 75.81Z"/>
<path fill="currentColor" id="pinyin-0" transform="translate(265.26, 0) scale(1.000, 1)" d="M2.05 7.64L1.88 6.59L1.82 6.59Q1.00 7.76-0.53 7.76L-0.53 7.76Q-1.88 7.76-2.72 6.74Q-3.57 5.71-3.57 3.66L-3.57 3.66Q-3.57 1.55-2.72 0.50Q-1.88-0.56-0.53-0.56L-0.53-0.56Q0.94-0.56 1.82 0.61L1.82 0.61L1.88 0.61L1.82-0.56L1.82-3.78L3.11-3.78L3.11 7.64L2.05 7.64ZM1.82 3.95L1.82 3.95L1.82 3.66Q1.82 1.90 1.29 1.23Q0.76 0.55-0.29 0.55L-0.29 0.55Q-1.23 0.55-1.70 1.32Q-2.17 2.08-2.17 3.66L-2.17 3.66Q-2.17 5.18-1.70 5.95Q-1.23 6.71-0.23 6.71L-0.23 6.71Q0.76 6.71 1.29 6.06Q1.82 5.42 1.82 3.95Z"/><path fill="currentColor" id="pinyin-1" transform="translate(274.05, 0) scale(1.000, 1)" d="M0.82-2.55L0.82-2.55Q0.82-2.14 0.62-1.94Q0.41-1.73 0-1.73L0-1.73Q-0.35-1.73-0.56-1.94Q-0.76-2.14-0.76-2.55L-0.76-2.55Q-0.76-3.02-0.56-3.22Q-0.35-3.43 0-3.43L0-3.43Q0.41-3.43 0.62-3.22Q0.82-3.02 0.82-2.55ZM0.70-0.38L0.70 7.64L-0.64 7.64L-0.64-0.38L0.70-0.38Z"/><path fill="currentColor" id="pinyin-2" transform="translate(277.92, 0) scale(1.000, 1)" d="M2.81 7.64L1.82 7.64L1.58 6.53L1.52 6.53Q0.64 7.76-0.94 7.76L-0.94 7.76Q-2.05 7.76-2.67 7.15Q-3.28 6.53-3.28 5.42L-3.28 5.42Q-3.28 2.96 0.12 2.84L0.12 2.84L1.46 2.78L1.46 2.31Q1.46 1.43 1.08 0.99Q0.70 0.55-0.12 0.55L-0.12 0.55Q-1.11 0.55-2.23 1.14L-2.23 1.14L-2.70 0.14Q-1.41-0.56-0.12-0.56L-0.12-0.56Q1.41-0.56 2.11 0.09Q2.81 0.73 2.81 2.14L2.81 2.14L2.81 7.64ZM1.46 4.42L1.46 3.72L0.41 3.78Q-0.94 3.84-1.44 4.25Q-1.93 4.66-1.93 5.42L-1.93 5.42Q-1.93 6.06-1.61 6.38Q-1.29 6.71-0.64 6.71L-0.64 6.71Q0.35 6.71 0.91 6.12Q1.46 5.54 1.46 4.42L1.46 4.42ZM2.52-3.84L2.52-3.66Q1.05-2.02 0.82-1.44L0.82-1.44L-0.59-1.44Q-0.76-1.85-1.23-2.38L-1.23-2.38L-2.34-3.66L-2.34-3.84L-1.46-3.84Q-0.82-3.43 0.12-2.49L0.12-2.49Q0.94-3.37 1.64-3.84L1.64-3.84L2.52-3.84Z"/><path fill="currentColor" id="pinyin-3" transform="translate(285.89, 0) scale(1.000, 1)" d="M3.19 7.64L1.90 7.64L1.90 2.49Q1.90 1.49 1.49 1.02Q1.08 0.55 0.26 0.55L0.26 0.55Q-0.73 0.55-1.26 1.23Q-1.79 1.90-1.79 3.48L-1.79 3.48L-1.79 7.64L-3.13 7.64L-3.13-0.38L-2.08-0.38L-1.85 0.67L-1.79 0.67Q-1.08-0.56 0.50-0.56L0.50-0.56Q1.85-0.56 2.52 0.17Q3.19 0.91 3.19 2.37L3.19 2.37L3.19 7.64Z"/>
</g>
<g id="char-4">
<path fill="currentColor" d="M350.59 39.06L350.59 34.91L384.94 34.91L384.94 39.06L380.56 39.06L380.56 76.47Q380.56 79.53 379.47 80.84Q378.38 82.16 375.31 82.16L375.31 82.16Q372.69 82.16 370.28 81.50L370.28 81.50L369.41 77.34Q372.03 78 374.66 78L374.66 78Q376.19 78 376.19 75.38L376.19 75.38L376.19 39.06L350.59 39.06ZM353.22 47.59L369.84 47.59L369.84 66.84L357.38 66.84L357.38 69.91L353.22 69.91L353.22 47.59ZM357.38 51.31L357.38 62.91L365.69 62.91L365.69 51.31L357.38 51.31ZM345.78 31.84L345.78 31.84L350.16 33.16Q348.41 38.19 346.22 43.22L346.22 43.22L346.22 82.16L341.84 82.16L341.84 51.53Q339.22 55.69 336.38 59.19L336.38 59.19L334.19 54.81Q342.28 43.88 345.78 31.84Z"/>
<path fill="currentColor" id="pinyin-0" transform="translate(351.56, 0) scale(1.000, 1)" d="M3.19 7.64L1.90 7.64L1.90 2.49Q1.90 1.49 1.49 1.02Q1.08 0.55 0.26 0.55L0.26 0.55Q-0.73 0.55-1.26 1.23Q-1.79 1.90-1.79 3.48L-1.79 3.48L-1.79 7.64L-3.13 7.64L-3.13-3.78L-1.79-3.78L-1.79-0.38L-1.85 0.67L-1.79 0.67Q-1.08-0.56 0.50-0.56L0.50-0.56Q1.85-0.56 2.52 0.17Q3.19 0.91 3.19 2.37L3.19 2.37L3.19 7.64Z"/><path fill="currentColor" id="pinyin-1" transform="translate(360.41, 0) scale(1.000, 1)" d="M3.25 3.07L3.25 3.89L-1.79 3.89Q-1.79 5.24-1.23 5.95Q-0.67 6.65 0.44 6.65L0.44 6.65Q1.73 6.65 2.90 6.06L2.90 6.06L2.90 7.23Q1.79 7.76 0.44 7.76L0.44 7.76Q-1.20 7.76-2.20 6.71Q-3.19 5.65-3.19 3.66L-3.19 3.66Q-3.19 1.67-2.26 0.55Q-1.32-0.56 0.15-0.56L0.15-0.56Q1.55-0.56 2.40 0.41Q3.25 1.38 3.25 3.07L3.25 3.07ZM-1.79 2.78L-1.79 2.78L1.85 2.78Q1.85 1.67 1.41 1.11Q0.97 0.55 0.09 0.55L0.09 0.55Q-1.61 0.55-1.79 2.78ZM-0.56-1.44L-0.56-1.67Q0.15-2.55 0.73-3.84L0.73-3.84L2.31-3.84L2.31-3.72Q1.55-2.49 0.32-1.44L0.32-1.44L-0.56-1.44Z"/>
</g>
<g id="char-5">
<path fill="currentColor" d="M424.03 31.41L424.03 31.41L428.41 32.72L427.09 35.13L439.78 35.13L439.78 38.84L432.78 38.84Q434.53 40.59 436.06 42.34L436.06 42.34L432.13 44.53Q430.38 41.69 427.97 38.84L427.97 38.84L424.47 38.84Q421.84 42.34 418.34 44.97L418.34 44.97L414.84 42.34Q421.41 37.31 424.03 31.41ZM446.78 31.41L446.78 31.41L450.94 32.72Q450.50 33.81 449.84 35.13L449.84 35.13L464.94 35.13L464.94 38.84L456.19 38.84L458.16 41.25L454.22 43.44Q452.91 41.25 451.16 38.84L451.16 38.84L447.44 38.84Q445.25 41.91 442.41 44.31L442.41 44.31L438.69 41.69Q444.16 37.09 446.78 31.41ZM419.22 51.75L419.22 47.81L438.03 47.81L438.03 44.97L442.41 44.97L442.41 47.81L460.34 47.81L460.34 51.75L442.41 51.75L442.41 55.91L464.72 55.91L464.72 59.84L415.28 59.84L415.28 55.91L438.03 55.91L438.03 51.75L419.22 51.75ZM417.69 68.16L417.69 64.22L449.84 64.22L449.84 61.16L454.22 61.16L454.22 64.22L462.97 64.22L462.97 68.16L454.22 68.16L454.22 76.47Q454.22 79.53 452.58 80.73Q450.94 81.94 445.25 81.94L445.25 81.94Q441.09 81.94 437.38 81.06L437.38 81.06L436.72 76.69Q440.88 77.78 445.25 77.78L445.25 77.78Q447.66 77.78 448.75 77.23Q449.84 76.69 449.84 75.81L449.84 75.81L449.84 68.16L417.69 68.16ZM422.06 71.66L425.78 69.03Q429.06 71.66 432.56 75.16L432.56 75.16L428.84 78Q426 74.72 422.06 71.66L422.06 71.66Z"/>
<path fill="currentColor" id="pinyin-0" transform="translate(423.27, 0) scale(1.000, 1)" d="M2.05 7.64L1.88 6.59L1.82 6.59Q1.00 7.76-0.53 7.76L-0.53 7.76Q-1.88 7.76-2.72 6.74Q-3.57 5.71-3.57 3.66L-3.57 3.66Q-3.57 1.55-2.72 0.50Q-1.88-0.56-0.53-0.56L-0.53-0.56Q0.94-0.56 1.82 0.61L1.82 0.61L1.88 0.61L1.82-0.56L1.82-3.78L3.11-3.78L3.11 7.64L2.05 7.64ZM1.82 3.95L1.82 3.95L1.82 3.66Q1.82 1.90 1.29 1.23Q0.76 0.55-0.29 0.55L-0.29 0.55Q-1.23 0.55-1.70 1.32Q-2.17 2.08-2.17 3.66L-2.17 3.66Q-2.17 5.18-1.70 5.95Q-1.23 6.71-0.23 6.71L-0.23 6.71Q0.76 6.71 1.29 6.06Q1.82 5.42 1.82 3.95Z"/><path fill="currentColor" id="pinyin-1" transform="translate(432.06, 0) scale(1.000, 1)" d="M3.25 3.07L3.25 3.89L-1.79 3.89Q-1.79 5.24-1.23 5.95Q-0.67 6.65 0.44 6.65L0.44 6.65Q1.73 6.65 2.90 6.06L2.90 6.06L2.90 7.23Q1.79 7.76 0.44 7.76L0.44 7.76Q-1.20 7.76-2.20 6.71Q-3.19 5.65-3.19 3.66L-3.19 3.66Q-3.19 1.67-2.26 0.55Q-1.32-0.56 0.15-0.56L0.15-0.56Q1.55-0.56 2.40 0.41Q3.25 1.38 3.25 3.07L3.25 3.07ZM-1.79 2.78L-1.79 2.78L1.85 2.78Q1.85 1.67 1.41 1.11Q0.97 0.55 0.09 0.55L0.09 0.55Q-1.61 0.55-1.79 2.78ZM2.72-3.84L2.72-3.66Q1.26-2.02 1.03-1.44L1.03-1.44L-0.38-1.44Q-0.56-1.85-1.03-2.38L-1.03-2.38L-2.14-3.66L-2.14-3.84L-1.26-3.84Q-0.62-3.43 0.32-2.49L0.32-2.49Q1.14-3.37 1.85-3.84L1.85-3.84L2.72-3.84Z"/><path fill="currentColor" id="pinyin-2" transform="translate(440.09, 0) scale(1.000, 1)" d="M3.19 7.64L1.90 7.64L1.90 2.49Q1.90 1.49 1.49 1.02Q1.08 0.55 0.26 0.55L0.26 0.55Q-0.73 0.55-1.26 1.23Q-1.79 1.90-1.79 3.48L-1.79 3.48L-1.79 7.64L-3.13 7.64L-3.13-0.38L-2.08-0.38L-1.85 0.67L-1.79 0.67Q-1.08-0.56 0.50-0.56L0.50-0.56Q1.85-0.56 2.52 0.17Q3.19 0.91 3.19 2.37L3.19 2.37L3.19 7.64Z"/><path fill="currentColor" id="pinyin-3" transform="translate(448.94, 0) scale(1.000, 1)" d="M0.91-0.38L3.60-0.38L3.60 0.44L2.14 0.61Q2.61 1.26 2.61 2.20L2.61 2.20Q2.61 3.37 1.88 4.07Q1.14 4.77-0.15 4.77L-0.15 4.77Q-0.62 4.77-0.73 4.71L-0.73 4.71Q-1.38 5.13-1.38 5.71L-1.38 5.71Q-1.38 6.00-1.11 6.15Q-0.85 6.30-0.26 6.30L-0.26 6.30L1.03 6.30Q2.26 6.30 2.87 6.85Q3.49 7.41 3.49 8.46L3.49 8.46Q3.49 9.87 2.49 10.54Q1.49 11.22-0.50 11.22L-0.50 11.22Q-2.08 11.22-2.84 10.66Q-3.60 10.11-3.60 8.99L-3.60 8.99Q-3.60 7.47-1.85 7L-1.85 7Q-2.55 6.71-2.55 5.89L-2.55 5.89Q-2.55 5.07-1.61 4.48L-1.61 4.48Q-3.02 3.89-3.02 2.25L-3.02 2.25Q-3.02 0.91-2.26 0.17Q-1.49-0.56-0.15-0.56L-0.15-0.56Q0.50-0.56 0.91-0.38L0.91-0.38ZM1.32 2.14L1.32 2.14Q1.32 1.32 0.94 0.88Q0.56 0.44-0.21 0.44L-0.21 0.44Q-0.97 0.44-1.32 0.88Q-1.67 1.32-1.67 2.20L-1.67 2.20Q-1.67 3.02-1.29 3.43Q-0.91 3.84-0.15 3.84L-0.15 3.84Q0.56 3.84 0.94 3.43Q1.32 3.02 1.32 2.14ZM0.50 7.53L0.50 7.53L-0.79 7.53Q-1.55 7.53-1.96 7.88Q-2.37 8.23-2.37 8.93L-2.37 8.93Q-2.37 9.58-1.90 9.90Q-1.44 10.22-0.50 10.22L-0.50 10.22Q0.85 10.22 1.52 9.81Q2.20 9.40 2.20 8.58L2.20 8.58Q2.20 8.00 1.88 7.76Q1.55 7.53 0.50 7.53Z"/>
</g>
<g id="char-6">
<path fill="currentColor" d="M494.84 45.19L494.84 41.03L504.03 41.03L504.03 31.84L508.41 31.84L508.41 41.03L531.16 41.03L531.16 31.84L535.53 31.84L535.53 41.03L545.16 41.03L545.16 45.19L535.53 45.19L535.53 82.16L531.16 82.16L531.16 78L508.41 78L508.41 82.16L504.03 82.16L504.03 45.19L494.84 45.19ZM508.41 45.19L508.41 57.44L531.16 57.44L531.16 45.19L508.41 45.19ZM508.41 61.59L508.41 73.84L531.16 73.84L531.16 61.59L508.41 61.59Z"/>
<path fill="currentColor" id="pinyin-0" transform="translate(507.70, 0) scale(1.000, 1)" d="M0.91-0.38L3.60-0.38L3.60 0.44L2.14 0.61Q2.61 1.26 2.61 2.20L2.61 2.20Q2.61 3.37 1.88 4.07Q1.14 4.77-0.15 4.77L-0.15 4.77Q-0.62 4.77-0.73 4.71L-0.73 4.71Q-1.38 5.13-1.38 5.71L-1.38 5.71Q-1.38 6.00-1.11 6.15Q-0.85 6.30-0.26 6.30L-0.26 6.30L1.03 6.30Q2.26 6.30 2.87 6.85Q3.49 7.41 3.49 8.46L3.49 8.46Q3.49 9.87 2.49 10.54Q1.49 11.22-0.50 11.22L-0.50 11.22Q-2.08 11.22-2.84 10.66Q-3.60 10.11-3.60 8.99L-3.60 8.99Q-3.60 7.47-1.85 7L-1.85 7Q-2.55 6.71-2.55 5.89L-2.55 5.89Q-2.55 5.07-1.61 4.48L-1.61 4.48Q-3.02 3.89-3.02 2.25L-3.02 2.25Q-3.02 0.91-2.26 0.17Q-1.49-0.56-0.15-0.56L-0.15-0.56Q0.50-0.56 0.91-0.38L0.91-0.38ZM1.32 2.14L1.32 2.14Q1.32 1.32 0.94 0.88Q0.56 0.44-0.21 0.44L-0.21 0.44Q-0.97 0.44-1.32 0.88Q-1.67 1.32-1.67 2.20L-1.67 2.20Q-1.67 3.02-1.29 3.43Q-0.91 3.84-0.15 3.84L-0.15 3.84Q0.56 3.84 0.94 3.43Q1.32 3.02 1.32 2.14ZM0.50 7.53L0.50 7.53L-0.79 7.53Q-1.55 7.53-1.96 7.88Q-2.37 8.23-2.37 8.93L-2.37 8.93Q-2.37 9.58-1.90 9.90Q-1.44 10.22-0.50 10.22L-0.50 10.22Q0.85 10.22 1.52 9.81Q2.20 9.40 2.20 8.58L2.20 8.58Q2.20 8.00 1.88 7.76Q1.55 7.53 0.50 7.53Z"/><path fill="currentColor" id="pinyin-1" transform="translate(515.49, 0) scale(1.000, 1)" d="M2.81 7.64L1.82 7.64L1.58 6.53L1.52 6.53Q0.64 7.76-0.94 7.76L-0.94 7.76Q-2.05 7.76-2.67 7.15Q-3.28 6.53-3.28 5.42L-3.28 5.42Q-3.28 2.96 0.12 2.84L0.12 2.84L1.46 2.78L1.46 2.31Q1.46 1.43 1.08 0.99Q0.70 0.55-0.12 0.55L-0.12 0.55Q-1.11 0.55-2.23 1.14L-2.23 1.14L-2.70 0.14Q-1.41-0.56-0.12-0.56L-0.12-0.56Q1.41-0.56 2.11 0.09Q2.81 0.73 2.81 2.14L2.81 2.14L2.81 7.64ZM1.46 4.42L1.46 3.72L0.41 3.78Q-0.94 3.84-1.44 4.25Q-1.93 4.66-1.93 5.42L-1.93 5.42Q-1.93 6.06-1.61 6.38Q-1.29 6.71-0.64 6.71L-0.64 6.71Q0.35 6.71 0.91 6.12Q1.46 5.54 1.46 4.42L1.46 4.42ZM-2.05-1.44L-2.05-2.55L2.17-2.55L2.17-1.44L-2.05-1.44Z"/><path fill="currentColor" id="pinyin-2" transform="translate(523.46, 0) scale(1.000, 1)" d="M3.19 7.64L1.90 7.64L1.90 2.49Q1.90 1.49 1.49 1.02Q1.08 0.55 0.26 0.55L0.26 0.55Q-0.73 0.55-1.26 1.23Q-1.79 1.90-1.79 3.48L-1.79 3.48L-1.79 7.64L-3.13 7.64L-3.13-0.38L-2.08-0.38L-1.85 0.67L-1.79 0.67Q-1.08-0.56 0.50-0.56L0.50-0.56Q1.85-0.56 2.52 0.17Q3.19 0.91 3.19 2.37L3.19 2.37L3.19 7.64Z"/>
</g>
<g id="char-7">
<path fill="currentColor" d="M594.97 32.72L594.97 32.72L596.94 36.44Q592.78 37.31 588.19 37.97L588.19 37.97L588.19 46.28L597.16 46.28L597.16 50.44L588.19 50.44L588.19 59.41L595.63 59.41L595.63 81.94L591.25 81.94L591.25 78.44L580.97 78.44L580.97 82.16L576.59 82.16L576.59 59.41L583.81 59.41L583.81 50.44L574.84 50.44L574.84 46.28L583.81 46.28L583.81 38.63L576.59 39.50L575.06 35.34Q585.78 34.47 594.97 32.72ZM580.97 63.56L580.97 74.50L591.25 74.50L591.25 63.56L580.97 63.56ZM595.84 45.41L595.84 41.25L600.88 41.25L600.88 32.72L605.25 32.72L605.25 41.25L616.84 41.25L616.84 32.72L621.22 32.72L621.22 41.25L625.81 41.25L625.81 45.41L621.22 45.41L621.22 82.16L616.84 82.16L616.84 78.44L605.25 78.44L605.25 82.16L600.88 82.16L600.88 45.41L595.84 45.41ZM605.25 45.41L605.25 57.88L616.84 57.88L616.84 45.41L605.25 45.41ZM605.25 61.81L605.25 74.50L616.84 74.50L616.84 61.81L605.25 61.81Z"/>
<path fill="currentColor" id="pinyin-0" transform="translate(587.11, 0) scale(1.000, 1)" d="M2.26 6.53L2.26 6.53L2.26 7.53Q1.73 7.76 0.97 7.76L0.97 7.76Q-0.09 7.76-0.62 7.15Q-1.14 6.53-1.14 5.24L-1.14 5.24L-1.14 0.61L-2.31 0.61L-2.31 0.03L-1.14-0.56L-0.62-2.26L0.15-2.26L0.15-0.38L2.20-0.38L2.20 0.61L0.15 0.61L0.15 5.24Q0.15 6.00 0.41 6.36Q0.67 6.71 1.14 6.71L1.14 6.71Q1.73 6.71 2.26 6.53Z"/><path fill="currentColor" id="pinyin-1" transform="translate(592.21, 0) scale(1.000, 1)" d="M0.82-2.55L0.82-2.55Q0.82-2.14 0.62-1.94Q0.41-1.73 0-1.73L0-1.73Q-0.35-1.73-0.56-1.94Q-0.76-2.14-0.76-2.55L-0.76-2.55Q-0.76-3.02-0.56-3.22Q-0.35-3.43 0-3.43L0-3.43Q0.41-3.43 0.62-3.22Q0.82-3.02 0.82-2.55ZM0.70-0.38L0.70 7.64L-0.64 7.64L-0.64-0.38L0.70-0.38Z"/><path fill="currentColor" id="pinyin-2" transform="translate(596.07, 0) scale(1.000, 1)" d="M2.81 7.64L1.82 7.64L1.58 6.53L1.52 6.53Q0.64 7.76-0.94 7.76L-0.94 7.76Q-2.05 7.76-2.67 7.15Q-3.28 6.53-3.28 5.42L-3.28 5.42Q-3.28 2.96 0.12 2.84L0.12 2.84L1.46 2.78L1.46 2.31Q1.46 1.43 1.08 0.99Q0.70 0.55-0.12 0.55L-0.12 0.55Q-1.11 0.55-2.23 1.14L-2.23 1.14L-2.70 0.14Q-1.41-0.56-0.12-0.56L-0.12-0.56Q1.41-0.56 2.11 0.09Q2.81 0.73 2.81 2.14L2.81 2.14L2.81 7.64ZM1.46 4.42L1.46 3.72L0.41 3.78Q-0.94 3.84-1.44 4.25Q-1.93 4.66-1.93 5.42L-1.93 5.42Q-1.93 6.06-1.61 6.38Q-1.29 6.71-0.64 6.71L-0.64 6.71Q0.35 6.71 0.91 6.12Q1.46 5.54 1.46 4.42L1.46 4.42ZM-0.70-1.44L-0.70-1.67Q0-2.55 0.59-3.84L0.59-3.84L2.17-3.84L2.17-3.72Q1.41-2.49 0.18-1.44L0.18-1.44L-0.70-1.44Z"/><path fill="currentColor" id="pinyin-3" transform="translate(604.04, 0) scale(1.000, 1)" d="M3.19 7.64L1.90 7.64L1.90 2.49Q1.90 1.49 1.49 1.02Q1.08 0.55 0.26 0.55L0.26 0.55Q-0.73 0.55-1.26 1.23Q-1.79 1.90-1.79 3.48L-1.79 3.48L-1.79 7.64L-3.13 7.64L-3.13-0.38L-2.08-0.38L-1.85 0.67L-1.79 0.67Q-1.08-0.56 0.50-0.56L0.50-0.56Q1.85-0.56 2.52 0.17Q3.19 0.91 3.19 2.37L3.19 2.37L3.19 7.64Z"/>
</g>
</svg>